<svg width="420" height="400" xmlns="http://www.w3.org/2000/svg">
 <!-- Created with Method Draw - http://github.com/duopixel/Method-Draw/ -->

 <g>
  <title>background</title>
  <rect fill="#fff" id="canvas_background" height="402" width="422" y="-1" x="-1"/>
  <g display="none" overflow="visible" y="0" x="0" height="100%" width="100%" id="canvasGrid">
   <rect fill="url(#gridpattern)" stroke-width="0" y="0" x="0" height="100%" width="100%"/>
  </g>
 </g>
 <g>
  <title>Layer 1</title>
  <ellipse ry="25" rx="26.5" id="svg_1" cy="345.499999" cx="49.999999" stroke-width="1.5" stroke="#000" fill="#fff"/>
  <ellipse ry="25" rx="26.5" id="svg_2" cy="284.499999" cx="118.999999" stroke-width="1.5" stroke="#000" fill="#fff"/>
  <ellipse ry="25" rx="26.5" id="svg_5" cy="214.499999" cx="190.999999" stroke-width="1.5" stroke="#000" fill="#fff"/>
  <ellipse ry="25" rx="26.5" id="svg_6" cy="99.499999" cx="305.999999" stroke-width="1.5" stroke="#000" fill="#fff"/>
  <ellipse ry="25" rx="26.5" id="svg_7" cy="36.499999" cx="387" stroke-width="1.5" stroke="#000" fill="#fff"/>
  <line stroke-linecap="null" stroke-linejoin="null" id="svg_8" y2="301.499999" x2="97.499999" y1="324.499999" x1="70.499999" fill-opacity="null" stroke-opacity="null" stroke-width="1.5" stroke="#000" fill="none"/>
  <line stroke-linecap="null" stroke-linejoin="null" id="svg_9" y2="234.499999" x2="169.499999" y1="264.499999" x1="140.499999" fill-opacity="null" stroke-opacity="null" stroke-width="1.5" stroke="#000" fill="none"/>
  <line stroke-linecap="null" stroke-linejoin="null" id="svg_10" y2="175.499999" x2="232.499999" y1="196.499999" x1="210.499999" fill-opacity="null" stroke-opacity="null" stroke-width="1.5" stroke="#000" fill="none"/>
  <line stroke-linecap="null" stroke-linejoin="null" id="svg_11" y2="132.499999" x2="273.499999" y1="118.499999" x1="286.499999" fill-opacity="null" stroke-opacity="null" stroke-width="1.5" stroke="#000" fill="none"/>
  <line stroke="#000" stroke-linecap="null" stroke-linejoin="null" id="svg_12" y2="50.499999" x2="365.499999" y1="81.499998" x1="323.5" fill-opacity="null" stroke-opacity="null" stroke-width="1.5" fill="none"/>
  <path id="svg_13" d="m79.499999,301.499999c0,0 14,0 13.500001,-0.499999c0.499999,0.499999 -0.500001,16.499999 -1,16" opacity="0.5" stroke-opacity="null" stroke-width="1.5" stroke="#000" fill="#000000"/>
  <path d="m156.5,233.5c0,0 1,0 2,0c1,0 1.693436,-0.458801 3,-1c0.923874,-0.38269 1.292892,-0.292892 2,-1c1.414215,-1.414215 4,-1 5,-1c1,0 3.458801,-0.306564 4,1c0.765366,1.847763 0,3 0,5c0,1 1.148056,2.228363 0,5c-0.541199,1.306564 -1,2 -2,3l0,1" id="svg_14" stroke-opacity="null" stroke-width="1.5" stroke="#000" fill="none"/>
  <path d="m267.5,113.5c1,0 3.585785,-0.414215 5,1c0.707092,0.707108 0.823761,1.486259 3,2c0.973236,0.229752 3,0 4,0c1,0 2,0 3,0c1,0 3,0 4,0c1,0 1,1 1,2c0,4 0,6 0,8c0,4 0,6 0,7l0,3l0,1l0,3" id="svg_15" stroke-opacity="null" stroke-width="1.5" stroke="#000" fill="none"/>
  <path d="m340.5,52.5c0,1 1,1 3,1c2,0 4,0 5,0c2,0 4,0 5,0c4,0 5,0 6,0c1,0 1.693451,-1.541195 3,-1c0.923889,0.382683 0,3 0,6c0,5 0,7 0,8c0,1 0,2 0,4c0,1 -1,1 -1,2l0,1l-1,0l0,1" id="svg_16" stroke-opacity="null" stroke-width="1.5" stroke="#000" fill="none"/>
  <text stroke="#000" transform="matrix(1,0,0,1.1884570121765137,0,-59.531803362071514) " xml:space="preserve" text-anchor="start" font-family="Helvetica, Arial, sans-serif" font-size="24" id="svg_17" y="346.755698" x="42.499999" stroke-opacity="null" stroke-width="0" fill="#000000">0</text>
  <text xml:space="preserve" text-anchor="start" font-family="Helvetica, Arial, sans-serif" font-size="24" id="svg_18" y="291.499999" x="112.499999" fill-opacity="null" stroke-opacity="null" stroke-width="0" stroke="#000" fill="#000000">1</text>
  <text xml:space="preserve" text-anchor="start" font-family="Helvetica, Arial, sans-serif" font-size="24" id="svg_19" y="220.499999" x="183.499999" fill-opacity="null" stroke-opacity="null" stroke-width="0" stroke="#000" fill="#000000">2</text>
  <line stroke-linecap="null" stroke-linejoin="null" id="svg_20" y2="131.499999" x2="273.499999" y1="174.499999" x1="231.499999" fill-opacity="null" stroke-opacity="null" stroke-width="1.5" stroke="#000" fill="none"/>
  <line stroke-linecap="null" stroke-linejoin="null" id="svg_21" y2="205.499999" x2="332.499999" y1="205.499999" x1="333.499999" fill-opacity="null" stroke-opacity="null" stroke-width="1.5" stroke="#000" fill="none"/>
  <text transform="rotate(6.270246505737305 309.16406249999994,99.16406249999974) " xml:space="preserve" text-anchor="start" font-family="Helvetica, Arial, sans-serif" font-size="24" id="svg_22" y="107.499999" x="302.499999" fill-opacity="null" stroke-opacity="null" stroke-width="0" stroke="#000" fill="#000000">8</text>
  <text xml:space="preserve" text-anchor="start" font-family="Helvetica, Arial, sans-serif" font-size="24" id="svg_23" y="43.499999" x="379.499999" fill-opacity="null" stroke-opacity="null" stroke-width="0" stroke="#000" fill="#000000">9</text>
  <polyline stroke-linecap="round" id="svg_24" points="259.4999986754526,326.4999992052715 259.4999986754526,326.4999992052715 " fill-opacity="null" stroke-opacity="null" stroke-width="1.5" stroke="#000" fill="none"/>
  <ellipse ry="41.5" rx="43" id="svg_33" cy="289.999999" cx="378.499999" stroke-width="1.5" stroke="#ffffff" fill="#ffffff"/>
  <ellipse ry="10" rx="10" id="svg_34" cy="173.499999" cx="230.499999" stroke-width="1.5" stroke="#ffffff" fill="#ffffff"/>
  <ellipse id="svg_35" cy="166.499999" cx="268.499999" stroke-width="1.5" stroke="#ffffff" fill="#ffffff"/>
  <ellipse ry="5" rx="3.5" id="svg_36" cy="152.499999" cx="251.999999" stroke-width="1.5" stroke="#ffffff" fill="#ffffff"/>
  <ellipse rx="0.5" id="svg_37" cy="176.499999" cx="292.999999" stroke-width="1.5" stroke="#ffffff" fill="#ffffff"/>
 </g>
</svg>